<?xml version="1.0" standalone="no"?>
<!DOCTYPE svg PUBLIC "-//W3C//DTD SVG 20010904//EN"
 "http://www.w3.org/TR/2001/REC-SVG-20010904/DTD/svg10.dtd">
<svg version="1.0" xmlns="http://www.w3.org/2000/svg"
 width="256.000000pt" height="256.000000pt" viewBox="0 0 256.000000 256.000000"
 preserveAspectRatio="xMidYMid meet">
<metadata>
Created by potrace 1.14, written by Peter Selinger 2001-2017
</metadata>
<g transform="translate(0.000000,256.000000) scale(0.100000,-0.100000)"
fill="#000000" stroke="none">
<path d="M0 1280 l0 -1280 1280 0 1280 0 0 1280 0 1280 -1280 0 -1280 0 0
-1280z m1966 848 c70 -25 137 -87 171 -156 25 -50 28 -68 28 -152 0 -80 -4
-102 -23 -138 -102 -191 -339 -248 -519 -126 -91 62 -134 148 -134 270 -1 71
3 89 29 141 81 160 269 228 448 161z m-1508 -55 c6 -27 25 -121 43 -210 19
-90 36 -163 39 -163 3 0 29 95 59 210 l54 210 79 0 c54 0 80 -4 83 -12 2 -7
25 -102 50 -210 26 -109 50 -198 54 -198 3 0 21 73 39 163 19 89 38 183 44
210 l10 47 75 0 76 0 -7 -32 c-7 -38 -97 -377 -128 -485 l-21 -73 -88 0 -88 0
-15 53 c-8 28 -29 112 -46 185 -18 72 -35 132 -39 132 -8 0 -20 -39 -72 -243
l-32 -128 -90 3 -91 3 -17 65 c-9 36 -42 162 -73 281 -31 119 -56 221 -56 228
0 7 25 11 74 11 l74 0 10 -47z m1889 -1340 l2 -513 -520 0 -519 0 0 508 c0
280 3 512 7 515 3 4 236 6 517 5 l511 -3 2 -512z m-1493 287 c74 -38 100 -78
104 -164 5 -95 -17 -128 -123 -192 -17 -9 -12 -21 53 -130 40 -67 72 -124 72
-127 0 -4 -38 -7 -84 -7 l-83 0 -70 123 c-59 104 -72 122 -93 122 l-25 0 -3
-122 -3 -123 -74 0 -75 0 0 326 0 326 178 -4 c165 -3 180 -5 226 -28z"/>
<path d="M1781 2010 c-39 -9 -77 -36 -105 -73 -31 -42 -35 -153 -7 -209 69
-142 288 -123 330 29 28 99 -6 201 -79 238 -35 18 -99 25 -139 15z"/>
<path d="M1330 730 l0 -500 500 0 500 0 0 500 0 500 -500 0 -500 0 0 -500z
m820 483 c-449 -7 -810 -7 -810 0 0 4 222 6 493 5 270 -1 413 -4 317 -5z
m-427 -130 c-24 -2 -62 -2 -85 0 -24 2 -5 4 42 4 47 0 66 -2 43 -4z m190 -20
c-7 -2 -19 -2 -25 0 -7 3 -2 5 12 5 14 0 19 -2 13 -5z m-42 -15 c30 -6 67 -11
82 -11 17 0 24 -3 16 -7 -8 -6 -2 -13 19 -24 17 -9 40 -26 51 -37 12 -13 24
-18 32 -14 8 6 10 4 5 -4 -5 -7 -1 -20 7 -29 74 -82 75 -304 2 -388 -14 -16
-23 -35 -20 -43 3 -9 0 -11 -10 -8 -8 4 -18 0 -22 -6 -12 -19 -78 -57 -99 -57
-15 0 -16 -2 -5 -9 11 -7 8 -9 -10 -10 -13 -1 -108 -4 -211 -7 l-188 -6 0 336
0 336 149 0 c81 0 173 -5 202 -12z m143 -22 c-10 -8 -21 -12 -24 -10 -5 6 21
24 34 24 6 0 1 -6 -10 -14z m40 -32 c5 -14 4 -15 -9 -4 -17 14 -19 20 -6 20 5
0 12 -7 15 -16z m73 -106 c-3 -8 -6 -5 -6 6 -1 11 2 17 5 13 3 -3 4 -12 1 -19z
m24 -39 c-5 -13 -10 -19 -10 -12 -1 15 10 45 15 40 3 -2 0 -15 -5 -28z m1
-241 c-10 -22 -10 -21 -9 9 1 19 6 28 11 23 6 -6 5 -18 -2 -32z m-50 -100 c-6
-6 -15 -8 -19 -4 -4 4 -1 11 7 16 19 12 27 3 12 -12z m48 8 c0 -3 -4 -8 -10
-11 -5 -3 -10 -1 -10 4 0 6 5 11 10 11 6 0 10 -2 10 -4z m-313 -142 c-3 -3
-12 -4 -19 -1 -8 3 -5 6 6 6 11 1 17 -2 13 -5z"/>
<path d="M1700 724 l0 -187 68 6 c37 3 75 9 84 12 16 6 16 9 1 33 -17 27 -17
27 3 10 25 -22 38 -22 58 -2 18 17 22 39 6 29 -6 -3 -7 1 -3 10 4 13 8 14 14
4 6 -10 11 -5 18 14 26 68 0 193 -37 180 -14 -5 -15 -3 -5 7 10 11 8 17 -10
32 -12 11 -29 17 -39 15 -10 -3 -16 -2 -13 3 7 11 -32 20 -92 20 l-53 0 0
-186z m80 172 c0 -2 -7 -7 -16 -10 -8 -3 -12 -2 -9 4 6 10 25 14 25 6z m104
-32 c3 -8 2 -12 -4 -9 -6 3 -10 10 -10 16 0 14 7 11 14 -7z m-4 -44 c0 -5 -4
-10 -10 -10 -5 0 -10 5 -10 10 0 6 5 10 10 10 6 0 10 -4 10 -10z m47 -32 c-3
-7 -5 -2 -5 12 0 14 2 19 5 13 2 -7 2 -19 0 -25z m23 -43 c0 -8 -4 -15 -10
-15 -5 0 -10 7 -10 15 0 8 5 15 10 15 6 0 10 -7 10 -15z m-53 -111 c-3 -3 -12
-4 -19 -1 -8 3 -5 6 6 6 11 1 17 -2 13 -5z"/>
<path d="M604 917 c-3 -8 -4 -47 -2 -88 l3 -74 78 1 c91 0 118 18 120 77 1 50
-24 83 -70 90 -65 11 -123 8 -129 -6z"/>
</g>
</svg>
